<svg xmlns="http://www.w3.org/2000/svg" viewBox="0 0 319 396"><circle cx="102.568" cy="168.001" r="1.44" fill="#A3A3A3"/><circle cx="97.817" cy="166.762" r="1.44" fill="#A3A3A3"/><circle cx="101.834" cy="162.833" r="1.44" fill="#A3A3A3"/><circle cx="93.981" cy="170.349" r="1.44" fill="#A3A3A3"/><circle cx="107.112" cy="164.593" r="1.44" fill="#A3A3A3"/><circle cx="90.468" cy="176.161" r="1.44" fill="#A3A3A3"/><circle cx="103.536" cy="172.966" r="1.44" fill="#A3A3A3"/><circle cx="97.386" cy="173.561" r="1.44" fill="#A3A3A3"/><ellipse transform="rotate(-54.006 180.963 131.32)" cx="180.958" cy="131.322" rx="1.44" ry="1.44" fill="#A3A3A3"/><ellipse transform="rotate(-54.006 173.926 135.174)" cx="173.914" cy="135.176" rx="1.44" ry="1.44" fill="#A3A3A3"/><ellipse transform="rotate(-54.006 171.567 140.382)" cx="171.566" cy="140.386" rx="1.44" ry="1.44" fill="#A3A3A3"/><ellipse transform="rotate(-54.006 165.618 141.023)" cx="165.606" cy="141.025" rx="1.44" ry="1.44" fill="#A3A3A3"/><ellipse transform="rotate(-54.01 161.672 146.033)" cx="161.668" cy="146.027" rx="1.44" ry="1.44" fill="#A3A3A3"/><ellipse transform="rotate(-54.006 188.927 129.313)" cx="188.916" cy="129.316" rx="1.44" ry="1.44" fill="#A3A3A3"/><ellipse transform="rotate(-54.006 201.274 132.293)" cx="201.263" cy="132.297" rx="1.44" ry="1.44" fill="#A3A3A3"/><ellipse transform="rotate(-54.006 208.668 133.617)" cx="208.656" cy="133.621" rx="1.44" ry="1.44" fill="#A3A3A3"/><ellipse transform="rotate(-54.006 194.88 132.293)" cx="194.876" cy="132.297" rx="1.44" ry="1.44" fill="#A3A3A3"/><ellipse transform="rotate(-54.006 186.148 134.208)" cx="186.149" cy="134.213" rx="1.44" ry="1.44" fill="#A3A3A3"/><ellipse transform="rotate(-54.01 179.02 136.453)" cx="179.017" cy="136.448" rx="1.44" ry="1.44" fill="#A3A3A3"/><path d="M195.456 126.964c2.426-7.943-14.565-45.188-63.716-22.898-37.78 17.133-30.3-11.393-30.3-11.393s-28.47 2.757-28.892 38.145c-.42 35.39 38.76 38.97 56.664 30.965 17.905-8.005 47.606-36.442 66.244-34.82z" fill="#A3A3A3"/><path d="M110.608 166.37c-8.547 0-17.592-1.993-24.896-6.79-9.417-6.185-14.314-16.135-14.164-28.773.427-35.87 29.502-39.1 29.796-39.128.32-.035.645.097.857.346.213.25.29.585.208.9-.024.093-2.348 9.29 2.62 13.473 4.385 3.69 13.48 2.57 26.3-3.243 12.84-5.823 36.985-13.304 54.43 2.02 8.834 7.76 11.908 17.98 10.655 22.082-.138.45-.57.75-1.043.703-11.687-1.01-28.4 10.52-43.15 20.7-8.318 5.74-16.176 11.164-22.6 14.035-5.13 2.292-11.9 3.673-19.012 3.673zm-10.436-72.496c-5.625 1.044-26.267 6.92-26.624 36.956-.142 11.923 4.444 21.287 13.262 27.078 12.325 8.094 31.03 7.863 41.994 2.962 6.255-2.796 14.04-8.168 22.28-13.855 14.668-10.123 31.29-21.562 43.562-21.102.384-3.675-2.44-12.412-10.21-19.236-16.6-14.582-39.882-7.323-52.283-1.7-13.77 6.246-23.334 7.237-28.42 2.945-4.662-3.932-4.078-10.998-3.56-14.048z"/><path d="M128.154 162.172c-12.12 0-22.287-2.977-30.254-8.863-7.37-5.446-12.378-13.09-14.48-22.106-3.863-16.558 2.964-32.932 16.233-38.935.815-.37 1.81.094 2.19.742.343.58.208 1.263-.326 1.66-2.75 2.042-3.853 7.32-2.618 12.547.773 3.28 3.64 11.1 13.504 12.847 4.75.845 11.608-1.657 19.554-4.55 18.415-6.7 43.635-15.882 63.376 10.752.328.442.235 1.07-.208 1.397-.446.33-1.07.236-1.4-.208-18.85-25.437-42.27-16.912-61.083-10.063-8.216 2.99-15.313 5.57-20.587 4.64-7.655-1.356-13.3-6.723-15.104-14.358-1.125-4.764-.51-9.493 1.46-12.533-11.03 6.316-16.483 20.864-13.045 35.602 1.994 8.546 6.738 15.79 13.72 20.95 8.153 6.02 18.766 8.857 31.563 8.43.577-.017 1.015.413 1.033.965.02.552-.414 1.015-.966 1.033-.864.03-1.72.044-2.563.044z"/></svg>