<svg id="Layer_1" xmlns="http://www.w3.org/2000/svg" viewBox="0 0 319 396"><style>.st0{fill:#f6ece5}.st1{fill:#d8e0e7}.st2{fill:none;stroke:#000;stroke-width:2;stroke-miterlimit:10}</style><title>Skin_1</title><path class="st0" d="M198.4 368.7c-6.2 0-15-3.9-21.7-22.7-2.8-7.7-6.9-22.6-7.8-31.1-2.1-.3-4.3-.4-6.3-.6l-2.1-.2c0 1 .1 2.5.1 4.2.2 6.9.5 17.4.4 20 .1 8.9-1.6 15.1-5 18.5-1.8 1.9-4.4 2.9-7 2.9-.6 0-1.2 0-1.8-.1-11.6-1.9-10.7-19.2-10.2-24.4.5-6.9 2.6-18.5 3.3-22.3l.1-.8c.5-2.7 4.5-20 6.4-28.2l1.2-5.3h.8c1.3 0 2.6.1 3.9.1 9.6 0 19.1-1.3 28.3-3.9l1-.3.2 1c0 .1 2.3 11.5 4.2 18.7 2.4 8.9 8.2 24.4 8.2 24.6.8 2.6 7.2 18.2 9.4 23.2 5.3 12.1 4.2 18.8 2.2 22.2-1.2 2.3-3.3 4-5.9 4.4-.5 0-1.1.1-1.9.1z"/><path d="M181.3 275.6s2.3 11.4 4.2 18.8c2.4 9 8.3 24.7 8.3 24.7.8 2.6 7.2 18.2 9.4 23.2 8.2 18.7 1.1 24.7-2.9 25.2-.6.1-1.3.1-1.9.1-6.1 0-14.4-4.2-20.8-22-3-8.3-7.1-23.6-7.8-31.7-3.5-.5-7.4-.7-10.3-1 0 1.4.7 21.6.6 25.3.1 17.6-6.7 20.5-11.1 20.5-.5 0-1.1 0-1.6-.1-3.9-.6-11.2-4.7-9.4-23.3.5-7.6 3.1-21.2 3.5-23.1.7-3.4 6.9-30.4 7.4-32.7 1.3 0 2.6.1 3.9.1 9.7 0 19.3-1.4 28.5-4m1.6-2.4l-2.1.6c-9.1 2.5-18.5 3.8-28 3.9-1.3 0-2.5 0-3.8-.1l-1.7-.1-.3 1.5-1 4.5c-1.9 8.3-5.8 25.5-6.4 28.2l-.2.9c-.7 3.8-2.8 15.4-3.3 22.4-.9 8.6.1 15.2 2.8 19.6 1.7 3.1 4.8 5.2 8.2 5.8.7.1 1.3.2 2 .2 2.9 0 5.7-1.1 7.7-3.2 3.6-3.6 5.4-10.1 5.3-19.2.1-2.7-.2-13.2-.4-20.1 0-1.1-.1-2.2-.1-3l1 .1c1.7.1 3.6.3 5.5.5 1 8.8 5 23 7.7 30.6 6.9 19.3 16.1 23.4 22.6 23.4.7 0 1.5-.1 2.2-.2 2.9-.5 5.3-2.3 6.6-4.9 2-3.6 3.3-10.6-2.2-23.1-2.2-5-8.5-20.5-9.3-23-.1-.2-5.8-15.7-8.2-24.5-1.9-7.2-4.2-18.5-4.2-18.6l-.4-2.1v-.1z"/><path class="st1" d="M181.3 275.6c-2 .6-4.1.9-6.1 1.5-1.3.4-.3 9.3-9.6 9.3-10.1 0-10.5-6.9-11.3-6.9-1.8 0-3.6 0-5.4-.1-.5 2.2-7.3 32-7.4 32.7s-.4 2-.5 3c.6.8 7.7 5 18.7 1.9 0-1-.1-3.9-.1-4.1 3 .3 6.9.5 10.3 1 .1.9.3 2.8.5 4 .6.7 12.3 3.4 22.3-2.1-1.9-5.5-5.6-16-7.1-21.5-2-7.3-4.3-18.7-4.3-18.7z"/><path class="st0" d="M193.7 307.8c-.8 0-1.5-.1-2.3-.2-4.3-.6-7.2-3.4-7.6-7-.2-2.6 1.5-5.7 3.3-9.1 1.7-3.1 3.4-6.3 3.2-8.5-.3-2.8-2.4-5.5-5.8-7.7l-1.8-1.2 2-.6c3.7-1.1 7.2-2.4 10.8-3.9l.3-.1.3.1c12.3 3.6 18.6 9.6 18.7 18 0 4.4-2.2 9.2-6.2 13.2-4.2 4.4-9.7 7-14.9 7z"/><path d="M195.9 270.6c9.4 2.7 17.9 7.7 18 17 .1 8.8-9.9 19.1-20.2 19.1-.7 0-1.4-.1-2.2-.2-4.1-.6-6.4-3.2-6.7-6.1-.4-4.7 7-12.7 6.5-17.5-.4-2.9-2.4-5.9-6.2-8.4 3.7-1 7.3-2.4 10.8-3.9m-.1-2.1l-.6.3c-3.5 1.5-7 2.8-10.7 3.9l-4.1 1.3 3.6 2.3c3.1 2 5 4.5 5.3 7 .2 1.8-1.5 5-3.1 7.9-1.9 3.5-3.7 6.7-3.4 9.6.4 4.1 3.6 7.2 8.4 7.9.8.1 1.6.2 2.4.2 5.5 0 11.2-2.6 15.8-7.2 4.2-4.2 6.5-9.3 6.5-14-.1-11-10.6-16.4-19.4-18.9l-.7-.3z"/><path class="st0" d="M134.8 306.2c-3.6 0-7.7-2.1-10.7-5.5-2.7-2.9-4.1-6.7-3.8-10.7.7-5.3 4.6-9.8 11.6-13.4l.3-.2.4.1c3.9.8 7.8 1.3 11.7 1.7l2.7.2-2.2 1.6c-2.8 2.1-4.5 4.6-4.8 7.1-.2 2 .6 3.8 1.4 5.8 1.4 3.3 3 7-1 11.1-1.4 1.5-3.5 2.3-5.6 2.2z"/><path d="M132.4 277.5c3.9.8 7.8 1.4 11.8 1.7-3.4 2.5-4.9 5.3-5.2 7.8-.6 5.9 6.5 10.5.7 16.3-1.3 1.3-3.1 2-4.9 2-6.5 0-14.4-7.6-13.5-15 .7-5.1 4.4-9.3 11.1-12.8m-.3-2l-.6.3c-7.3 3.8-11.4 8.6-12.1 14.2-.4 4.2 1.1 8.4 4 11.5 3.2 3.6 7.6 5.9 11.4 5.9 2.4 0 4.7-.9 6.3-2.6 4.5-4.5 2.7-8.8 1.2-12.2-.8-1.9-1.5-3.6-1.4-5.3.2-2.2 1.8-4.5 4.4-6.4l4.4-3.2-5.4-.4c-3.9-.3-7.8-.9-11.6-1.6l-.6-.2z"/><path class="st0" d="M195.9 270.6c-3.5 1.5-7.2 2.8-10.9 3.9 1.1.7 2.2 1.6 3.2 2.6 4-1.5 7.8-3.2 11.5-5.2-1.2-.5-2.5-.9-3.8-1.3z"/><path class="st0" d="M153.7 278.6c-30.3 0-57.1-13.1-69.8-34.3-9.2-15.3-11.2-32.7-5.7-50.3 7.2-23 26.4-43.9 50-54.4 19.2-8.6 37.6-13 54.6-13 26.2 0 46.9 10.4 60 30.2 9.9 15 13 34 8.7 52.4-5.3 22.1-21.1 41.7-44.6 55.2-16.2 9.2-34.5 14.1-53.2 14.2z"/><path d="M182.9 127.6c25.1 0 46 9.9 59.1 29.8 19.6 29.8 13.6 77.9-35.6 106.2-16 9.2-34.2 14-52.6 14.1-29.2 0-56.1-12.4-69-33.8-24-39.8 6.1-86.3 43.9-103.2 19.1-8.8 37.6-13.1 54.2-13.1m-.1-2c-17.1 0-35.6 4.4-55 13.1-23.9 10.7-43.3 31.8-50.6 55.1-5.6 17.8-3.6 35.5 5.8 51 12.9 21.5 40 34.8 70.7 34.8 18.8 0 37.3-5 53.6-14.3 11.7-6.5 22.1-15.3 30.4-25.8 7-8.8 12-19.1 14.7-30.1 4.4-18.6 1.2-37.9-8.8-53.1-13.2-20.2-34.2-30.8-60.8-30.7z"/><path class="st2" d="M140 315.9c6.2 3.4 13.6 4.2 20.4 2M169.8 318.9s12.5 3.8 23.6-2.2"/><path d="M164.5 287.5c-5.7 0-10.5-3.7-11.6-8.8l2-.4c.8 4.2 5.1 7.4 9.9 7.2 5.3-.1 9.5-4 9.6-8.7h2c-.1 5.8-5.2 10.5-11.5 10.6-.2.1-.3.1-.4.1z"/></svg>