<svg id="Layer_1" xmlns="http://www.w3.org/2000/svg" xmlns:xlink="http://www.w3.org/1999/xlink" viewBox="0 0 805.6 1000"><style>.st0{fill:#FFFFFF;} .st1{fill:#A3A3A3;} .st2{enable-background:new ;} .st3{clip-path:url(#SVGID_2_);} .st4{fill:#8A5234;} .st5{fill:#AE6F42;} .st6{fill:#C3D6D9;}</style><g id="_x36__x5F_grey"><path d="M639.4 518.8c7.7-43.6-.8-88.3-24-124.2-3.5-5.4-7.3-10.6-11.3-15.5l-4.7 2.2c4.2 5 8.1 10.3 11.8 16 23.3 36.1 32.2 82.6 21.6 129l6.6-7.5zM247.9 654.5c-13.5-11.2-25-24.2-33.8-38.9-18.8-31.2-24.5-64.1-20.5-95.8l-5.3 1.7c-3.8 33.9 3.5 66.8 21.5 96.7 8.4 14 19.2 26.6 31.9 37.6l6.2-1.3z"/><path class="st0" d="M243.4 650.9c-20.1-17.2-37.2-42.5-46.4-75.9-4.8-17.3-6-37.2-3.3-55.8l49.7-1.1 31.4 123.3-31.4 9.5z"/><path class="st1" d="M203.9 515.2c-1.7 18 .3 37.7 6.4 57.1 13.8 43.8 43.6 71.3 74.4 74.8l32.7-14.2c.5-.9 10.4-3.5 10.9-4.4 1.3-2.7 2.4 1.1 3.4-2 7.3-22.1 7.4-52.2-.3-80.7-4.4-16.5-12.3-35.8-22.7-52.7l-104.8 22.1z"/><path d="M220.4 509.5c-1.5 15.9.8 34.4 7.5 54.8 16.8 51 57 74.8 88.6 62 6.5-2.6 12.1-6.8 16.8-12.1.3-1.7 1.3 1.2 1.6-.5 4.1-24 1.9-45.4-4.1-67.6-4.3-16-12.4-35.5-22.7-52.9l-87.7 16.3z"/><path class="st0" d="M323.4 564.5c-3.5 6.7-9.3 11.4-16.2 13.1-1.9.5-3.8.7-5.7.7-12.6 0-24.1-10-27.5-23.7-4-16.2 4.4-32.3 18.7-35.8 1.9-.5 3.8-.7 5.7-.7 12.6 0 24.2 10 27.5 23.7 2 7.8 1.1 15.9-2.5 22.7z"/><path d="M334.8 624.4c6.2-21.1 5.4-49.1-2.8-79.4-4-15-11.1-34.3-21-51.8l-3.9.8c9.6 16.7 16.8 35.7 21.2 52 8 29.5 9.5 58.7 1.8 80.6l4.7-2.2zm-85.9 30.2c-2.3-1.2-4.1-2.5-5.5-3.7-20.1-17.2-37.2-42.5-46.4-75.9-4.8-17.3-6-37.2-3.3-55.8l-3.9.6c-2.5 18.4-1.5 38.2 3.5 56.2 8.8 31.7 25.2 58.6 47.6 77.8.9.8 2 1.6 3.2 2.4l4.8-1.6z"/><g><path class="st0" d="M470.2 584.2c-45.2-18-80.5-59.9-85.1-111.6l212.6-92.4c12 13.6 21.6 31.1 29.7 52.5 2.7 7.2 5.1 16.8 7.3 25.1.5 2 2.9 16.7 2.5 21.9-1.2 16.5-5.3 36.9-20.1 59.5l-146.9 45z"/><path class="st1" d="M601 380.5c24.4 28.7 32 64.5 32 64.8 3.7 45.1-13.2 82.9-40.4 106.9l-81.4 27.5c-60.5-4.2-110.9-55-110.9-117.2l200.7-82z"/><path d="M387.1 472.7c4.5 49.3 38.3 91.5 83.4 109.6l-6 1.6c-43.8-19.4-76.3-61.2-81.1-109.8l3.7-1.4zm217.7-92.5c10.6 12.9 19.5 29.6 27.4 50.5 2.9 7.6 9.4 38.1 9 43.7-.8 11.1-4.6 37.7-22.1 65.1l-5 .7c18.5-27.6 22.5-54.9 23.3-66 .3-4.6-5.8-34.5-8.7-42.1-8.1-21.5-17.3-38.3-28.4-51.2l4.5-.7z"/><path d="M576.3 385.7c20.9 14.8 35.6 38 38.9 67.9 6 54.5-36 100.7-88.4 104.6-51 3.8-97.2-34.2-103.2-85.7-1.2-10.3-.7-20.3 1.3-29.9"/><path class="st0" d="M525.2 431.9c19.1 0 34.6 15.5 34.6 34.6s-15.5 34.6-34.6 34.6-34.6-15.5-34.6-34.6 15.5-34.6 34.6-34.6z"/><path d="M603.9 379.1c11.1 13.1 20.2 30.1 28.4 51.6 2.9 7.6 9.4 38.1 9 43.7-.8 11.1-4.6 37.7-22.1 65.1L613 542c19.6-28.2 23.7-56.4 24.5-67.8.3-4.6-5.8-34.5-8.7-42.1-8.3-21.9-17.7-39-29.2-52l4.3-1zm-216.8 93.6c4.6 51.1 40.7 94.5 88.2 111.4l-8.7.7c-44.9-19-78.4-61.3-83.3-110.8l3.8-1.3z"/></g><g><g class="st2"><defs><path id="SVGID_1_" d="M167.6 682.8l-61.4-135.5 533.3-190 57.4 172.6z"/></defs><clipPath id="SVGID_2_"><use xlink:href="#SVGID_1_" overflow="visible"/></clipPath><g class="st3"><path class="st4" d="M155.7 586.9c-.7-1.5-1.3-3-1.9-4.4-.6-1.4-1.1-2.8-1.6-4.2-.5-1.3-.9-2.6-1.3-3.9-.4-1.2-.7-2.4-.9-3.5-1-4.5.1-8.8 3-12.8 2.9-4.1 7.4-8 13.2-11.6 5.8-3.7 12.8-7.2 20.4-10.5 7.7-3.3 16-6.5 24.5-9.4.5-.2.9-.3 1.4-.5s.9-.3 1.4-.5.9-.3 1.4-.5.9-.3 1.4-.5c6.5-2.2 12.7-4.1 18.6-5.7 6-1.7 11.7-3.1 17.2-4.3 5.6-1.2 10.9-2.2 16.2-3.1 5.3-.9 10.5-1.6 15.6-2.2 8.4-1 15.3-.8 21 .1 5.7 1 10.2 2.7 13.7 4.8s6.1 4.4 7.9 6.6c1.9 2.2 3 4.3 3.7 5.8 0 0 0 .1.1.1s0 .1.1.2c0 .1.1.1.1.2s.1.1.1.2c.9 2.1 2.2 6.6 3.6 12.6 1.4 5.9 2.7 13.2 3.6 20.9.9 7.6 1.4 15.6 1 22.8s-1.7 13.8-4.4 18.6c-2.7 5-6.7 9.3-11.3 13-4.6 3.7-9.8 6.8-15.1 9.5-5.3 2.6-10.6 4.7-15.5 6.4-4.8 1.7-9.2 3-12.5 4s-9 2.7-16 4.4c-6.9 1.7-15.2 3.6-23.6 4.8-8.4 1.3-16.9 2-24.7 1.6-7.7-.4-14.6-1.9-19.8-5.1-3.9-2.5-7.9-5.9-11.8-9.9-3.9-4-7.6-8.6-11.2-13.5-3.5-4.9-6.9-10.1-9.9-15.3-2.8-5.1-5.5-10.3-7.7-15.2m247.5-83.5c0-.1-.1-.1-.1-.2s0-.1-.1-.2c0-.1 0-.1-.1-.2v-.2c-.5-1.6-1.1-3.9-1.2-6.8s.2-6.3 1.6-10.1c1.4-3.8 3.8-8 7.8-12.5 4-4.4 9.7-9.1 17.6-13.8 4.9-2.9 9.9-5.8 15.2-8.7 5.3-2.9 10.9-5.8 16.9-8.6 6-2.9 12.3-5.7 19.2-8.6 6.9-2.9 14.3-5.8 22.3-8.6l1.8-.6 1.8-.6 1.8-.6 1.8-.6c10.8-3.8 21.8-7.3 32.4-10.3 10.7-3 21.1-5.4 30.5-6.7 9.5-1.3 17.9-1.5 24.8-.2 6.9 1.3 12.1 4.2 15.1 9 .7 1.2 1.5 2.5 2.2 3.9s1.4 2.9 2.2 4.4c.7 1.6 1.4 3.2 2.1 4.9.7 1.7 1.3 3.5 2 5.4 2.1 6 3.9 12.7 5.4 19.7 1.4 6.9 2.5 14.1 3 21.1s.5 13.9-.2 20.3-2 12.2-4.2 17.2c-2.8 6.5-9.1 12.6-17.2 18.2-8 5.5-17.8 10.5-27.7 14.8-9.8 4.3-19.7 7.9-28.2 10.7-8.4 2.8-15.4 4.9-19.5 6.1-4 1.2-9.3 2.7-15.3 4.2s-12.7 2.9-19.7 3.8c-6.9.9-14.1 1.4-21.2 1-7-.4-13.8-1.7-20-4.2-6-2.4-12.1-7-17.9-12.6s-11.3-12.2-16.2-18.9c-4.9-6.6-9.2-13.2-12.4-18.7-3.2-5.7-5.5-10-6.3-12.2m82.9-88.4c-24.9 8.8-39.6 15.2-52.8 22.1-13.1 6.8-20.8 11.6-26.9 16.6-6 5-9.3 8.6-12.2 11.8-2.9 3.1-3.5 5.9-7.1 7.2-3.6 1.2-9.9 3.5-14.9 5.3-5 1.9-10.2 4.1-15.5 6.1s-9.6 3.8-14.1 5.5c-4.6 1.7-8.8 3.4-11.6 4.4-2.9 1-5.9 1.3-10.6.8s-11.5-1.9-20.3-1.7c-8.8.2-19.5 1.2-34.5 4.3-14.9 3.1-34.2 8.6-56.9 16.6-16.6 5.9-30.5 10.9-41.6 15.4-11 4.4-19.3 8.4-26.1 11.6-6.8 3.2-11.5 6-15.1 8.1-2.5 1.5-4.1 2.4-5.5 3.4-1 .7-2.6 3.3-3.4 2.3-1.4-1.6-1.4 2.2-1.4 2.7-.1.5-.3 1.6-.2 2.1.1.5 0 1.9.2 2.4l8.1 20.1c.2.4 1.2 1.9 1.5 2.2.3.4 1 1.1 1.4 1.4s.9 1.7 1.2 1.9c.4.2 1.6-.1 2 0 .6.1 2 .5 2.8.8s1.5.2 2.4.6c.8.4 1.9 1.2 2.8 1.8.8.6 1.5 1.6 2.2 2.4 1.3 1.3 3.1 3.4 6.9 8.2 3.8 4.8 7.4 10.3 12 16.2 4.6 6 8.3 11.2 12.1 16s6.8 8 8.1 9.2 4.5 4.5 6.5 6.1 5 3.6 8 5.1 5.7 3.1 10.1 3.9c4.3.7 10.5 1.4 16.6.9 4.4-.4 9.6-.9 14.2-1.5 4.7-.6 8.8-2.1 13.7-2.9 4.9-.9 10.7-1 15.7-2.1s9.2-3.1 14.1-4.5c1.9-.6 5.1-.2 7.1-.8 1.9-.6 3.9-1.7 5.8-2.3 1.9-.7 3.3-2.2 5.1-2.9 1.9-.7 3.6-1.2 5.4-2 6.5-2.8 13.6-4.6 18.9-7.1 5.3-2.6 10.9-5.2 14.9-8.4s7.3-7 9.9-11.7 4.1-11.7 5.2-18.9c1.1-7.1 3.3-13.4 3.9-18.6.6-5.3-.1-9 0-13.1s1.4-7.7 1.1-11.4c-.2-3.7-1-9.5-1.5-13.5 0-.1-.5-1.2-.5-1.2s0 .1 0 0-.7-.4-.8-.5c1.7-1.1-.7-.4-.8-.5-.4-.5-.4-1-1.1-2.1s-.7-2.5-1.2-4-1.6-2.3-1.4-4c.2-1.6 1-2.1 2.5-3.6 1.4-1.4 3-2 4.4-3.1s2.8-1.8 4.2-2.7c1.5-.8 2.3-1.4 3.9-2.1 1.6-.7 2.8-1.2 4.7-1.8 1.9-.6 5.1-1.6 7.1-2.1 1.2-.3 2.4-.6 3.7-.8 1.8-.2 2.5-.2 4-.1s3.2.6 4.2 1 1 .1 1.9.8c.9.7 1.2 1.2 1.9 2.2.7 1.1 1.2 2.1 1.5 3.6.3 1.6.3 1.8 0 3.9-2.3-.5 0 .8 0 1 0 .1.2 1.4.2 1.5-1.4-.2-.3.5-.2.6s1.4.9 1.5 1c.9 1.1-.2 1.4 2.6 4.6 2.8 3.1 5.4 7.1 9.5 11.3s8.7 8.1 13.5 12.5 10.2 9.8 15 13.5c5.2 3.9 10 8.3 14.2 10.8 4.3 2.5 11.6 6.1 16.5 7.1s9 1 16 .4c7.1-.6 14.6-2.3 25.5-4.5 3-.6 6.4-.8 9.3-1.4 2.9-.6 7.1-.9 9.8-1.5 2.8-.7 6.5-2.3 9.1-3s5.7-1.3 8.2-2c6.6-1.9 11.1-3.3 17.2-5.5 6.2-2.3 13-5.1 19-7.8 6.1-2.7 12.2-6.3 18.5-9.5 6.3-3.3 12.9-5.8 19.8-9.7 9.6-5.5 18.7-11.4 22.3-20.5 3.7-9.2 6-23.6 6.1-34.3.1-10.7-1-21.9-1.8-31.8s-2.6-16.5-1.6-23.2c.2-1.7-.3-4.8 0-6.2.3-1.4 1-1.8 1.4-3s1.1-4.1 1.8-5c.6-.9 1.1-1.2 2-2 .5-.4.4-1.3 1-1.2 1.4 0 .1-1.5.8-1.5 3 .2 2.2-2.9 2.2-3.5s-.6-3.4-.8-4l-6-22.5c-.2-.7-1.1-.8-1.5-1.4 2.6-.8-1.2-1.2-1.8-1.6 2.4-.9-.4-1.1-1.2-1.2-.7-.2-2-1.1-2.8-1-3.8.4-9 .1-16.8 1.5s-29.2 7-41.3 9.9c-11.9 2.9-23.1 5.8-39.3 10.7-16.2 4.6-33.5 10.2-53.8 17.4z"/><path class="st5" d="M330.5 496.7c2.9-1 6.8-2.4 11.4-4.2 4.6-1.7 9.7-3.7 15-5.7s10.7-4.1 15.7-5.9c5-1.9 9.5-3.5 13.1-4.8 3.6-1.2 5.9-3.5 8.8-6.6 2.9-3.2 6.4-7.3 12.4-12.2 6-5 14.6-10.9 27.7-17.7 13.3-6.9 31.3-14.7 56.1-23.6 20.3-7.2 38.4-13.1 54.4-17.9 16.2-4.9 30.3-8.7 42.2-11.6 12-2.9 21.9-5 29.7-6.4s13.6-2.3 17.4-2.7c.8-.1 1.6 0 2.3.1.7.2 1.4.5 2.1.9.6.4 1.2.9 1.6 1.5.4.6.8 1.3 1 2l6.5 23.3c.2.6.2 1.2.2 1.8 0 .6-.1 1.2-.3 1.8-.2.6-.5 1.1-.8 1.6-.4.5-.8 1-1.3 1.4-.9.8-1.6 1.6-2.2 2.6-.6.9-1.1 2-1.5 3.2s-.8 2.4-1.1 3.9c-.3 1.4-.5 2.9-.8 4.6-.9 6.7-.3 15.6.4 25.6.8 9.9 1.8 20.8 1.6 31.5-.1 10.7-1.4 21.2-5.1 30.4-3.6 9.1-9.7 17-19.3 22.5-6.9 3.9-13.4 7.5-19.8 10.7-6.3 3.2-12.4 6.2-18.5 8.9-6 2.7-12.1 5.1-18.3 7.4-6.2 2.2-12.5 4.3-19.1 6.2-2.5.7-5.1 1.5-7.8 2.2-2.6.7-5.3 1.4-8.1 2-2.7.7-5.6 1.3-8.4 2-2.9.6-5.8 1.3-8.9 1.9-10.9 2.2-19.4 3.6-26.5 4.2-7 .6-12.6.4-17.5-.6s-9.1-2.7-13.3-5.2c-4.3-2.5-8.6-5.7-13.8-9.6-4.8-3.7-9.8-7.9-14.5-12.4-4.8-4.4-9.3-9-13.4-13.2s-7.7-8.2-10.5-11.3-4.8-5.5-5.8-6.6c-.1-.1-.2-.2-.2-.4-.1-.1-.1-.3-.2-.4 0-.1-.1-.3-.1-.4v-.4c.3-2.1.2-3.9-.1-5.5-.3-1.6-.8-2.9-1.5-4s-1.5-2-2.4-2.7-1.9-1.2-2.9-1.6-2.3-.6-3.8-.7-3.1 0-4.9.2-3.6.5-5.5.9-3.8 1-5.6 1.6c-1.8.6-3.5 1.2-5.1 1.9-1.6.7-3.1 1.4-4.6 2.3-1.5.8-2.9 1.8-4.3 2.9-1.4 1.1-2.8 2.3-4.2 3.7-1.5 1.5-2.3 3.2-2.5 4.8s0 3.3.5 4.8 1.3 2.9 2 4 1.4 2 1.9 2.5c.1.1.1.2.2.2s.1.2.1.3.1.2.1.3.1.2.1.3c.5 4 .9 7.7 1.2 11.4.2 3.7.3 7.4.2 11.6-.1 4.1-.5 8.6-1.1 13.9-.6 5.2-1.4 11.2-2.5 18.3s-3 12.8-5.6 17.6c-2.6 4.7-5.9 8.4-9.9 11.7-4 3.2-8.7 5.9-14 8.4-5.3 2.6-11.2 5-17.7 7.8-1.8.8-3.7 1.5-5.5 2.3-1.9.7-3.7 1.4-5.6 2.1-1.9.7-3.8 1.3-5.7 1.9-1.9.6-3.8 1.2-5.8 1.8-4.9 1.4-9.9 2.7-14.9 3.8s-9.9 2.1-14.8 3c-4.9.9-9.7 1.6-14.3 2.2-4.7.6-9.2 1.1-13.5 1.5-6 .6-11.1.3-15.5-.4-4.3-.7-7.9-2-10.9-3.5s-5.4-3.2-7.4-4.8-3.6-3.2-4.9-4.4c-1.3-1.2-4.3-4.8-8.2-9.6-3.8-4.8-8.5-10.7-13.1-16.7s-9.3-12-13.1-16.8-6.8-8.4-8-9.7c-.8-.8-1.6-1.4-2.5-2-.8-.6-1.7-1-2.5-1.4s-1.7-.7-2.4-1c-.8-.3-1.5-.5-2.1-.6-.4-.1-.8-.3-1.2-.5s-.8-.5-1.1-.8-.7-.6-.9-1c-.3-.4-.5-.8-.7-1.2l-8.8-20.1c-.2-.5-.4-1.1-.5-1.6s-.1-1 0-1.5.2-1 .5-1.4c.2-.4.5-.8.9-1.1 1.5-1.2 3.8-2.8 7.4-4.9 3.6-2.1 8.6-4.8 15.3-8 6.8-3.2 15.4-7 26.5-11.4 11.1-4.5 24.7-9.6 41.3-15.5 22.7-8 41-13.1 55.9-16.2 15-3.2 26.4-4.3 35.2-4.5 8.9-.2 15.1.5 19.8 1 4.4.4 7.6.7 10.5-.3m158.4-85.8c-18.2 6.5-32.8 12.4-44.5 17.9-11.6 5.4-20.6 10.3-27.6 14.8-7 4.4-12 8.4-15.9 11.9s-6.7 6.6-9.1 9.2c-.9 1-1.6 1.8-2.3 2.5-.7.7-1.3 1.4-1.9 1.9s-1.2 1-1.8 1.4c-.6.4-1.3.7-1.9.9-1.9.7-4 1.4-6.4 2.3-2.3.9-4.8 1.8-7.5 2.8-2.6 1-5.4 2-8.1 3.1-2.8 1.1-5.6 2.1-8.4 3.2-2.5 1-5 1.9-7.4 2.8s-4.7 1.8-6.8 2.6c-2.1.8-4.1 1.6-5.9 2.2-1.8.7-3.4 1.2-4.7 1.7-.5.2-1 .3-1.6.3-.6.1-1.3.1-2 0-.7 0-1.5-.1-2.4-.2s-1.9-.2-2.9-.3c-1.8-.2-3.9-.4-6.2-.6-2.3-.2-4.9-.3-7.9-.4-2.9-.1-6.2 0-9.9.2s-7.8.5-12.3 1.1c-5.3.7-10.9 1.6-16.8 2.8-5.9 1.2-12 2.6-18.4 4.3-6.4 1.7-13 3.6-19.9 5.7s-14 4.5-21.3 7.1c-16.4 5.8-29.9 11-41 15.5-11 4.4-19.7 8.3-26.7 11.6-6.9 3.3-12 6-15.8 8.2s-6.3 4-7.9 5.3c-.7.6-1.3 1.3-1.7 2.1-.4.8-.7 1.7-.9 2.6-.2.9-.2 1.9 0 2.9.1 1 .4 2 .9 3l8.8 20.1c.4.8.8 1.6 1.3 2.3s1.1 1.3 1.8 1.9c.7.6 1.4 1 2.1 1.4s1.5.7 2.3.9c.4.1.9.2 1.5.4s1.2.4 1.8.7 1.3.6 2 1.1c.7.4 1.3.9 1.9 1.5.5.5 1.5 1.6 2.7 3.2 1.3 1.5 2.8 3.5 4.6 5.7 1.7 2.2 3.6 4.6 5.6 7.2 2 2.5 4 5.1 6 7.6 3.2 4.1 6.1 7.8 8.6 11.1 2.6 3.3 4.8 6.2 6.8 8.6 2 2.5 3.6 4.5 5 6.1s2.4 2.7 3.2 3.4c.1.1.2.2.3.2.1.1.2.2.3.2s.2.2.3.2c.1.1.2.2.3.2 1.5 1.4 3.3 3.1 5.5 4.8s4.9 3.4 8.2 4.9 7.1 2.7 11.7 3.5c4.6.7 9.9 1 16 .4 5.2-.5 10.3-1.1 15.4-1.8s10.1-1.5 15-2.4c4.9-.9 9.7-1.9 14.4-3s9.2-2.3 13.6-3.5c2.1-.6 4.1-1.2 6.1-1.8s4-1.3 5.9-2l5.7-2.1c1.9-.7 3.7-1.5 5.4-2.2l3.2-1.3c6.2-2.6 11.9-5 17-7.6 5.2-2.6 9.7-5.4 13.7-8.8 4-3.4 7.3-7.3 10-12.3s4.6-11 5.8-18.4c1.1-7 2-13 2.6-18.3s1-9.9 1.1-14.1c.2-4.2.1-8.1-.1-12s-.7-7.8-1.2-12.1c0-.3-.1-.7-.2-1s-.2-.7-.4-1c-.1-.3-.3-.6-.5-.9l-.6-.9c-.5-.6-1-1.3-1.5-2-.5-.8-.9-1.6-1.2-2.5-.3-.9-.4-1.8-.3-2.6.1-.9.5-1.7 1.3-2.4 1.3-1.3 2.6-2.4 3.9-3.4s2.6-1.8 4-2.6c1.3-.7 2.7-1.4 4.1-2s2.9-1.1 4.5-1.7c2-.7 3.9-1.2 5.7-1.5 1.8-.4 3.4-.6 4.9-.8 1.4-.1 2.7-.2 3.7-.1 1 0 1.8.2 2.3.4.3.1.7.3 1.1.5.4.3.9.7 1.3 1.3s.8 1.4.9 2.4c.2 1 .2 2.3 0 4-.1.5-.1 1 0 1.5 0 .5.1 1 .3 1.4.1.5.3.9.6 1.4.2.4.5.9.9 1.2 1 1.2 3.1 3.6 6 6.8s6.5 7.2 10.7 11.5c4.1 4.3 8.8 8.9 13.6 13.4 4.8 4.5 9.8 8.8 14.8 12.5 5.4 4.1 10.1 7.5 14.6 10.1 4.6 2.6 9.1 4.5 14.3 5.6 5.2 1.1 11.2 1.3 18.6.8 7.5-.6 16.4-2 27.7-4.2 3.1-.6 6.1-1.3 9-1.9 2.9-.6 5.8-1.3 8.6-2s5.5-1.4 8.2-2.1c2.7-.7 5.3-1.4 7.8-2.2 6.3-1.8 12.3-3.8 18.3-5.9 6-2.2 12-4.5 18.1-7.2s12.4-5.7 19.1-9c6.7-3.4 13.7-7.2 21.2-11.4 7.7-4.4 13.4-10.1 17.4-16.7 4.1-6.6 6.6-14.1 8-22s1.8-16.2 1.7-24.4c-.1-8.2-.8-16.2-1.3-23.6-.2-2.6-.4-5.2-.6-7.7-.2-2.5-.3-4.9-.4-7.3-.1-2.3-.1-4.5-.1-6.6s.2-3.9.4-5.6c.2-1.6.4-2.9.7-4.1.2-1.2.5-2.2.8-3s.6-1.5 1-2.1.8-1.1 1.2-1.4c.9-.8 1.7-1.7 2.4-2.7s1.2-2 1.5-3.1c.4-1.1.6-2.2.6-3.3 0-1.1-.1-2.2-.4-3.3l-6.5-23.4c-.4-1.4-1-2.7-1.9-3.8-.8-1.1-1.9-2.1-3-2.8-1.2-.8-2.5-1.3-3.9-1.6-1.4-.3-2.9-.4-4.4-.2-4 .5-10 1.3-18 2.8s-18 3.6-30.1 6.6-26.2 6.8-42.4 11.7c-17.1 4.7-35.2 10.6-55.4 17.8"/><path class="st6" d="M278.6 630.9c-5.9 1.7-12.9 3.7-20.3 5.4s-15.2 3.3-22.8 4.3c-7.5 1-14.8 1.5-21.3 1-6.4-.4-12-1.7-16.1-4.3-4.8-3-9.7-7.5-14.3-12.9-4.7-5.4-9.2-11.6-13.2-18.1s-7.6-13.1-10.4-19.3c-2.8-6.2-4.9-11.9-6-16.5-.7-2.9 0-6 2.1-9.1s5.5-6.3 10.3-9.6c4.9-3.3 11.1-6.7 18.8-10.2s16.9-7.1 27.6-10.8c.5-.2.9-.3 1.4-.5s.9-.3 1.4-.5.9-.3 1.4-.5.9-.3 1.4-.5c7-2.3 13.5-4.3 19.7-6s12.1-3.1 17.6-4.2c5.5-1.2 10.7-2.1 15.6-2.8 4.9-.8 9.5-1.4 13.9-1.9 3.6-.4 7.5-.7 11.4-.6 3.9.1 7.9.5 11.7 1.5 3.8 1 7.3 2.5 10.4 4.7s5.7 5.1 7.6 8.9c.7 1.3 1.9 5.3 3.2 10.9 1.3 5.5 2.7 12.6 3.6 20.1 1 7.4 1.5 15.2 1.2 22.3-.3 7-1.5 13.4-3.9 17.9-2.6 4.7-6.4 8.8-11 12.4-4.5 3.5-9.6 6.5-14.8 9.1-5.1 2.5-10.3 4.5-14.9 6.1-4.5 1.6-8.5 2.8-11.3 3.7m-67.5-104.4c-8.5 3-16.8 6.1-24.5 9.4-7.6 3.3-14.6 6.8-20.4 10.5-5.7 3.7-10.3 7.6-13.2 11.6-2.9 4.1-4 8.3-3 12.8.3 1.1.6 2.3.9 3.5.4 1.2.8 2.5 1.3 3.9.5 1.3 1 2.7 1.6 4.2.6 1.4 1.2 2.9 1.9 4.4 2.2 4.9 4.8 10.1 7.8 15.3s6.3 10.4 9.9 15.3c3.5 4.9 7.3 9.5 11.2 13.5s7.8 7.4 11.8 9.9c5.2 3.2 12.1 4.7 19.8 5.1 7.7.4 16.3-.3 24.7-1.6s16.6-3.1 23.6-4.8c7-1.8 12.7-3.4 16-4.4s7.7-2.3 12.5-4c4.9-1.7 10.2-3.8 15.5-6.4 5.3-2.6 10.5-5.8 15.1-9.5s8.6-8 11.3-13c2.7-4.9 4-11.4 4.4-18.6.4-7.3 0-15.2-1-22.8-.9-7.6-2.3-14.9-3.6-20.9-1.4-5.9-2.7-10.5-3.6-12.6 0-.1-.1-.1-.1-.2s-.1-.1-.1-.2-.1-.1-.1-.2 0-.1-.1-.1c-.7-1.5-1.9-3.6-3.7-5.8-1.9-2.2-4.4-4.6-7.9-6.6-3.5-2.1-8-3.8-13.7-4.8s-12.6-1.2-21-.1c-5.1.6-10.3 1.3-15.6 2.2-5.3.9-10.6 1.9-16.2 3.1-5.5 1.2-11.3 2.6-17.2 4.3-5.9 1.6-12.1 3.5-18.6 5.7-.5.2-1 .3-1.4.5-.5.2-.9.3-1.4.5s-.9.3-1.4.5c-.5.1-1 .3-1.5.4M530.4 556c-3.4 1-8.2 2.4-13.9 3.9-5.6 1.4-12.1 2.8-18.9 3.8-6.7 1-13.8 1.5-20.6 1.2-6.8-.3-13.4-1.4-19.3-3.8-5.6-2.3-11.4-6.7-17-12.3-5.6-5.5-11-12.1-15.7-18.6s-8.9-13-11.9-18.1c-3-5.2-5-9.1-5.4-10.5-1.2-4.1-1.2-8-.3-11.7.9-3.7 2.7-7.1 5.1-10.3 2.4-3.2 5.4-6.1 8.7-8.7 3.3-2.6 6.8-5 10.2-7 4.2-2.5 8.6-5 13.5-7.7s10.2-5.5 16.1-8.3c5.9-2.9 12.4-5.8 19.5-8.8 7.2-3 15-6.1 23.6-9.1l1.8-.6 1.8-.6 1.8-.6 1.8-.6c13.6-4.7 25.9-8.5 36.9-11.4s20.6-4.8 28.7-5.7c8.2-.9 14.8-.8 19.9.3 5.1 1.1 8.7 3.2 10.6 6.4 3 4.8 6 11.5 8.5 19.2s4.6 16.3 6.1 25.1c1.4 8.8 2.1 17.7 1.8 25.9-.3 8.2-1.6 15.7-4.2 21.7-2.2 5.2-7.2 10.2-13.8 14.9s-14.8 9.2-23.6 13.2-18.1 7.7-27.1 10.9c-9 3.1-17.5 5.8-24.7 7.9m-21-133.7l-1.8.6-1.8.6-1.8.6-1.8.6c-8 2.9-15.4 5.7-22.3 8.6s-13.2 5.7-19.2 8.6-11.5 5.7-16.9 8.6c-5.3 2.9-10.3 5.8-15.2 8.7-7.9 4.7-13.6 9.4-17.6 13.8s-6.4 8.6-7.8 12.5c-1.4 3.8-1.7 7.3-1.6 10.1.1 2.9.7 5.2 1.2 6.8v.2s0 .1.1.2c0 .1 0 .1.1.2 0 .1 0 .1.1.2.8 2.2 3.1 6.5 6.3 12 3.2 5.5 7.5 12.1 12.4 18.7s10.4 13.3 16.2 18.9c5.8 5.6 11.9 10.1 17.9 12.6 6.2 2.5 13 3.8 20 4.2s14.2-.1 21.2-1 13.7-2.3 19.7-3.8 11.3-3 15.3-4.2c4.1-1.2 11.1-3.3 19.5-6.1 8.5-2.8 18.4-6.5 28.2-10.7 9.9-4.3 19.7-9.3 27.7-14.8 8.1-5.6 14.4-11.7 17.2-18.2 2.2-5 3.5-10.9 4.2-17.2.7-6.4.7-13.3.2-20.3s-1.6-14.2-3-21.1-3.3-13.6-5.4-19.7c-.6-1.9-1.3-3.6-2-5.4-.7-1.7-1.4-3.4-2.1-4.9-.7-1.6-1.4-3-2.2-4.4-.7-1.4-1.5-2.7-2.2-3.9-3-4.8-8.2-7.6-15.1-9-6.9-1.3-15.3-1.1-24.8.2-9.4 1.3-19.8 3.7-30.5 6.7-10.6 3.2-21.6 6.8-32.4 10.5"/></g></g></g></g></svg>